<svg aria-hidden="true" style="position: absolute; width: 0; height: 0; overflow: hidden;" version="1.1" xmlns="http://www.w3.org/2000/svg" xmlns:xlink="http://www.w3.org/1999/xlink">
<defs>
<symbol id="icon-arrow" viewBox="0 0 32 32">
<path d="M10.506 26.064c-5.505-3.178-7.391-10.217-4.213-15.721s10.217-7.391 15.721-4.213c5.505 3.178 7.391 10.217 4.213 15.721s-10.217 7.391-15.721 4.212z"></path>
<path d="M16.815 10.42c0-0.465-0.377-0.842-0.842-0.842s-0.842 0.377-0.842 0.842h1.684zM15.377 22.244c0.329 0.329 0.862 0.329 1.191 0l5.359-5.359c0.329-0.329 0.329-0.862 0-1.191s-0.862-0.329-1.191 0l-4.764 4.764-4.764-4.764c-0.329-0.329-0.862-0.329-1.191 0s-0.329 0.862 0 1.191l5.359 5.359zM15.13 10.42v11.228h1.684v-11.228h-1.684z"></path>
</symbol>
<symbol id="icon-instagram" viewBox="0 0 31 32">
<path d="M4.102 4.453c1.725-1.725 4.312-2.391 7.672-2.391h7.849c3.36 0 5.947 0.666 7.672 2.391s2.391 4.312 2.391 7.672v7.849c0 3.36-0.666 5.947-2.391 7.672s-4.312 2.391-7.672 2.391h-7.849c-3.36 0-5.947-0.666-7.672-2.391s-2.391-4.312-2.391-7.672v-7.849c0-3.36 0.666-5.947 2.391-7.672zM5.383 5.733c-1.219 1.219-1.861 3.21-1.861 6.391v7.849c0 3.181 0.642 5.172 1.861 6.391s3.21 1.861 6.391 1.861h7.849c3.181 0 5.172-0.642 6.391-1.861s1.861-3.21 1.861-6.391v-7.849c0-3.181-0.642-5.172-1.861-6.391s-3.21-1.861-6.391-1.861h-7.849c-3.181 0-5.172 0.642-6.391 1.861z"></path>
<path d="M11.82 12.171c1.029-1.028 2.423-1.606 3.878-1.606 0.72 0 1.433 0.142 2.099 0.417s1.27 0.68 1.779 1.189c0.509 0.509 0.913 1.114 1.189 1.779s0.417 1.379 0.417 2.099-0.142 1.433-0.417 2.099c-0.276 0.665-0.68 1.27-1.189 1.779s-1.114 0.913-1.779 1.189c-0.665 0.276-1.379 0.417-2.099 0.417-1.455 0-2.849-0.578-3.878-1.606s-1.606-2.424-1.606-3.878c0-1.455 0.578-2.849 1.606-3.878zM15.698 12.376c-0.974 0-1.908 0.387-2.597 1.076s-1.076 1.623-1.076 2.597 0.387 1.908 1.076 2.597c0.689 0.689 1.623 1.076 2.597 1.076 0.482 0 0.96-0.095 1.406-0.28s0.851-0.455 1.192-0.796c0.341-0.341 0.612-0.746 0.796-1.192s0.28-0.923 0.28-1.406-0.095-0.96-0.28-1.406c-0.185-0.446-0.455-0.851-0.796-1.192s-0.746-0.612-1.192-0.796c-0.446-0.185-0.923-0.28-1.406-0.28z"></path>
<path d="M21.022 7.739c0.51-0.51 1.201-0.796 1.921-0.796 0.357 0 0.71 0.070 1.040 0.207s0.629 0.337 0.881 0.589c0.252 0.252 0.452 0.552 0.589 0.881s0.207 0.683 0.207 1.040-0.070 0.71-0.207 1.040c-0.137 0.33-0.337 0.629-0.589 0.881s-0.552 0.452-0.881 0.589c-0.33 0.136-0.683 0.207-1.040 0.207-0.721 0-1.412-0.286-1.921-0.796s-0.796-1.201-0.796-1.921c0-0.721 0.286-1.412 0.796-1.921zM22.943 8.755c-0.24 0-0.471 0.095-0.64 0.265s-0.265 0.4-0.265 0.64c0 0.24 0.095 0.471 0.265 0.64s0.4 0.265 0.64 0.265c0.119 0 0.237-0.023 0.347-0.069s0.21-0.112 0.294-0.196c0.084-0.084 0.151-0.184 0.196-0.294s0.069-0.228 0.069-0.347c0-0.119-0.023-0.237-0.069-0.347s-0.112-0.21-0.196-0.294c-0.084-0.084-0.184-0.151-0.294-0.196s-0.228-0.069-0.347-0.069z"></path>
</symbol>
<symbol id="icon-telegram" viewBox="0 0 31 32">
<path d="M12.27 18.402l-0.002-0.001-7.311-2.687c-1.006-0.303-1.013-0.983 0.228-1.472l18.184-6.886c0.83-0.369 1.632 0.196 1.315 1.444l-3.096 14.329c-0.216 1.019-0.841 1.261-1.711 0.791l-4.717-3.421-2.268 2.165c-0.008 0.008-0.017 0.016-0.025 0.024-0.253 0.24-0.463 0.439-0.919 0.439l0.322-4.725zM14.040 19.064l0.961-0.918 5.023 3.643 2.643-12.23-14.386 5.447 4.622 1.699 6.398-5.277 1.153 1.397-6.344 5.233-0.069 1.005zM19.792 22.841c-0-0 0.001-0.004 0.004-0.011-0.003 0.008-0.004 0.012-0.004 0.011z"></path>
<path d="M3.9 3.9c1.725-1.725 4.312-2.391 7.672-2.391h7.849c3.36 0 5.947 0.666 7.672 2.391s2.391 4.312 2.391 7.672v7.849c0 3.36-0.666 5.947-2.391 7.672s-4.312 2.391-7.672 2.391h-7.849c-3.36 0-5.947-0.666-7.672-2.391s-2.391-4.312-2.391-7.672v-7.849c0-3.36 0.666-5.947 2.391-7.672zM5.181 5.181c-1.219 1.219-1.861 3.21-1.861 6.391v7.849c0 3.181 0.642 5.172 1.861 6.391s3.21 1.861 6.391 1.861h7.849c3.181 0 5.172-0.642 6.391-1.861s1.861-3.21 1.861-6.391v-7.849c0-3.181-0.642-5.172-1.861-6.391s-3.21-1.861-6.391-1.861h-7.849c-3.181 0-5.172 0.642-6.391 1.861z"></path>
</symbol>
<symbol id="icon-scroll-up" viewBox="0 0 55 32">
<path d="M13.743 14.215l-13.743 14.153 1.308 1.269c0.713 0.696 1.544 1.505 1.841 1.791l0.545 0.522 11.885-12.239c6.535-6.737 11.907-12.244 11.93-12.244s5.395 5.507 11.93 12.239l11.891 12.244 0.455-0.438c0.247-0.241 1.078-1.044 1.841-1.791l1.392-1.353-13.732-14.142c-7.556-7.775-13.749-14.147-13.771-14.153-0.017-0.006-6.215 6.355-13.771 14.142z"></path>
</symbol>
<symbol id="icon-instagram-small" viewBox="0 0 32 32">
<path  fill="var(--color-brand)" d="M9.6 0h12.8c5.302 0 9.6 4.298 9.6 9.6v12.8c0 5.302-4.298 9.6-9.6 9.6h-12.8c-5.302 0-9.6-4.298-9.6-9.6v-12.8c0-5.302 4.298-9.6 9.6-9.6z"></path>
<path  fill="var(--color-secondary)" d="M4.387 4.387c1.676-1.676 4.218-2.352 7.613-2.352h8c3.396 0 5.937 0.675 7.613 2.352s2.352 4.218 2.352 7.613v8c0 3.396-0.675 5.937-2.352 7.613s-4.218 2.352-7.613 2.352h-8c-3.396 0-5.937-0.675-7.613-2.352s-2.352-4.218-2.352-7.613v-8c0-3.396 0.675-5.937 2.352-7.613zM5.28 5.28c-1.324 1.324-1.982 3.449-1.982 6.72v8c0 3.271 0.658 5.396 1.982 6.72s3.449 1.982 6.72 1.982h8c3.271 0 5.396-0.658 6.72-1.982s1.982-3.449 1.982-6.72v-8c0-3.271-0.658-5.396-1.982-6.72s-3.449-1.982-6.72-1.982h-8c-3.271 0-5.396 0.658-6.72 1.982z"></path>
<path  fill="var(--color-secondary)" d="M12.254 12.254c0.994-0.994 2.341-1.552 3.746-1.552 0.696 0 1.385 0.137 2.028 0.403s1.227 0.656 1.719 1.149c0.492 0.492 0.882 1.076 1.149 1.719s0.403 1.332 0.403 2.028c0 0.696-0.137 1.385-0.403 2.028s-0.657 1.227-1.149 1.719c-0.492 0.492-1.076 0.882-1.719 1.149s-1.332 0.403-2.028 0.403c-1.405 0-2.753-0.558-3.746-1.552s-1.552-2.341-1.552-3.746 0.558-2.753 1.552-3.746zM16 11.965c-1.070 0-2.096 0.425-2.853 1.182s-1.182 1.783-1.182 2.853c0 1.070 0.425 2.097 1.182 2.853s1.783 1.182 2.853 1.182c0.53 0 1.055-0.104 1.544-0.307s0.934-0.5 1.309-0.875c0.375-0.375 0.672-0.82 0.875-1.309s0.307-1.014 0.307-1.544c0-0.53-0.104-1.055-0.307-1.544s-0.5-0.934-0.875-1.309c-0.375-0.375-0.82-0.672-1.309-0.875s-1.014-0.307-1.544-0.307z"></path>
<path  fill="var(--color-secondary)" d="M21.633 7.737c0.465-0.465 1.095-0.726 1.752-0.726 0.325 0 0.648 0.064 0.948 0.189s0.574 0.307 0.804 0.537 0.413 0.503 0.537 0.804c0.125 0.301 0.189 0.623 0.189 0.948s-0.064 0.648-0.189 0.948c-0.124 0.301-0.307 0.574-0.537 0.804s-0.503 0.413-0.804 0.537c-0.301 0.124-0.623 0.189-0.948 0.189-0.657 0-1.287-0.261-1.752-0.726s-0.726-1.095-0.726-1.752 0.261-1.287 0.726-1.752zM23.385 8.274c-0.322 0-0.631 0.128-0.859 0.356s-0.356 0.537-0.356 0.859c0 0.322 0.128 0.631 0.356 0.859s0.537 0.356 0.859 0.356c0.16 0 0.317-0.031 0.465-0.092s0.281-0.15 0.394-0.263c0.113-0.113 0.202-0.247 0.263-0.394s0.092-0.305 0.092-0.465-0.031-0.317-0.092-0.465c-0.061-0.147-0.151-0.281-0.263-0.394s-0.247-0.202-0.394-0.263c-0.147-0.061-0.305-0.092-0.465-0.092z"></path>
</symbol>
<symbol id="icon-arrow-down" viewBox="0 0 31 32">
<path d="M17.268 2.082c0-1.105-0.895-2-2-2s-2 0.895-2 2h4zM13.854 30.163c0.781 0.781 2.047 0.781 2.828 0l12.728-12.728c0.781-0.781 0.781-2.047 0-2.828s-2.047-0.781-2.829 0l-11.314 11.314-11.314-11.314c-0.781-0.781-2.047-0.781-2.828 0s-0.781 2.047 0 2.828l12.728 12.728zM13.268 2.082v26.667h4v-26.667h-4z"></path>
</symbol>
<symbol id="icon-cross" viewBox="0 0 24 24">
<path d="M18.984 6.422l-5.578 5.578 5.578 5.578-1.406 1.406-5.578-5.578-5.578 5.578-1.406-1.406 5.578-5.578-5.578-5.578 1.406-1.406 5.578 5.578 5.578-5.578z"></path>
</symbol>
<symbol id="icon-logo" viewBox="0 0 100 32">
<path d="M100.206 31.553h-2.391v-29.164h-95.424v29.164h-2.391v-31.553h100.206v31.553z"></path>
<path d="M26.027 12.093c0.787 0 1.528 0.102 2.221 0.308 0.694 0.206 1.297 0.51 1.81 0.911 0.513 0.403 0.916 0.911 1.207 1.527s0.436 1.334 0.436 2.157v9.419l-2.389-0.025v-8.393c0-1.197-0.266-2.127-0.796-2.784-0.53-0.659-1.473-0.988-2.825-0.988-1.319 0-2.367 0.403-3.146 1.206s-1.22 1.898-1.322 3.286l-0.025 7.7-2.388-0.025v-8.366c0-0.599-0.060-1.129-0.179-1.592s-0.321-0.86-0.604-1.194c-0.282-0.333-0.655-0.585-1.117-0.757s-1.036-0.256-1.72-0.256c-1.387 0-2.47 0.45-3.249 1.348s-1.185 2.1-1.22 3.607v7.237l-2.388-0.025v-13.578h2.388l-0.257 1.669c0.565-0.736 1.284-1.318 2.158-1.746s1.849-0.642 2.927-0.642c1.182 0.017 2.235 0.244 3.159 0.68s1.609 1.107 2.054 2.015c0.548-0.821 1.275-1.475 2.183-1.963 0.908-0.491 1.936-0.735 3.083-0.735z"></path>
<path d="M47.549 24.31v2.105h-13.534v-2.105h6.883v-9.394h-4.906v-2.13h7.319v11.523h4.239zM43.31 7.165v2.951h-3.211v-2.951h3.211z"></path>
<path d="M63.727 22.36c0 0.582-0.094 1.147-0.282 1.694-0.189 0.547-0.543 1.030-1.066 1.45s-1.259 0.757-2.209 1.015c-0.949 0.258-2.188 0.385-3.711 0.385-1.37 0-2.517-0.132-3.442-0.398-0.924-0.266-1.673-0.624-2.248-1.077s-0.988-0.975-1.245-1.565c-0.257-0.59-0.403-1.21-0.436-1.861h2.389c0.052 0.651 0.249 1.159 0.59 1.527s0.774 0.642 1.297 0.821c0.522 0.179 1.1 0.291 1.733 0.334s1.275 0.064 1.926 0.064c1.438 0 2.507-0.201 3.211-0.602 0.702-0.401 1.053-0.928 1.053-1.579 0-0.428-0.155-0.774-0.463-1.040s-0.715-0.475-1.22-0.629c-0.505-0.154-1.087-0.278-1.747-0.373s-1.339-0.175-2.041-0.244c-0.891-0.102-1.73-0.222-2.517-0.359s-1.473-0.333-2.054-0.59c-0.582-0.256-1.045-0.599-1.387-1.027-0.343-0.428-0.513-0.983-0.513-1.669 0-0.582 0.098-1.147 0.296-1.694 0.197-0.547 0.565-1.030 1.105-1.45 0.54-0.418 1.284-0.757 2.235-1.015 0.951-0.256 2.188-0.385 3.711-0.385 1.37 0 2.487 0.146 3.351 0.436 0.864 0.291 1.546 0.667 2.042 1.129s0.844 0.985 1.041 1.565c0.196 0.582 0.311 1.172 0.346 1.771h-2.389c-0.069-0.617-0.227-1.107-0.475-1.475s-0.578-0.645-0.989-0.834c-0.411-0.189-0.899-0.311-1.463-0.373-0.565-0.060-1.199-0.090-1.9-0.090-1.593 0-2.735 0.206-3.428 0.617-0.694 0.411-1.040 0.941-1.040 1.592 0 0.359 0.167 0.646 0.501 0.86s0.767 0.385 1.297 0.513c0.53 0.129 1.113 0.227 1.747 0.296 0.633 0.069 1.242 0.137 1.822 0.206 0.908 0.102 1.759 0.231 2.556 0.385s1.489 0.376 2.081 0.667c0.59 0.291 1.061 0.676 1.412 1.154 0.348 0.478 0.523 1.093 0.523 1.847z"></path>
<path d="M73.589 26.363c-1.284 0.017-2.285-0.085-3.005-0.308-0.719-0.222-1.254-0.62-1.605-1.194-0.351-0.573-0.565-1.368-0.642-2.388-0.077-1.018-0.115-2.314-0.115-3.888v-3.644h-2.439v-2.105h2.465v-3.003h2.389l-0.436 3.003h4.468v2.105h-4.033l-0.025 3.644c0 1.351 0.022 2.403 0.065 3.157s0.162 1.309 0.359 1.669c0.197 0.359 0.496 0.574 0.899 0.642 0.402 0.069 0.963 0.102 1.683 0.102l-0.027 2.208z"></path>
<path d="M92.876 19.588c-0.018 1.249-0.227 2.341-0.63 3.272-0.403 0.933-0.968 1.707-1.695 2.323s-1.593 1.077-2.594 1.386c-1.001 0.308-2.111 0.462-3.326 0.462-1.233 0-2.345-0.149-3.339-0.45-0.993-0.299-1.844-0.757-2.556-1.373s-1.262-1.395-1.656-2.336c-0.393-0.941-0.599-2.045-0.617-3.311 0-1.266 0.197-2.374 0.59-3.324s0.946-1.736 1.658-2.361c0.71-0.624 1.566-1.095 2.569-1.411 1.001-0.316 2.11-0.475 3.326-0.475 1.232 0 2.354 0.154 3.365 0.462s1.879 0.774 2.606 1.398c0.727 0.624 1.292 1.416 1.695 2.374 0.402 0.958 0.603 2.079 0.603 3.363zM78.905 19.511c0.035 1.848 0.543 3.204 1.528 4.068 0.984 0.864 2.385 1.296 4.199 1.296s3.227-0.428 4.237-1.284c1.011-0.856 1.532-2.216 1.566-4.080-0.035-1.866-0.565-3.229-1.593-4.094-1.028-0.864-2.449-1.296-4.264-1.296s-3.206 0.433-4.174 1.296c-0.965 0.864-1.465 2.229-1.5 4.094z"></path>
</symbol>
<symbol id="icon-vvmd" viewBox="0 0 214 32">
<path d="M83.459 0l-13.141 19.79-13.143-19.79h-18.172l-13.14 19.79-13.143-19.79h-12.72l21.249 32h9.229l17.613-26.526 17.613 26.526h9.226l21.248-32h-12.72z"></path>
<path d="M116.457 0h-12.147l-21.249 32h12.72l21.067-31.725-0.392-0.275z"></path>
<path d="M187.351 0h-33.684v29.525l-19.606-29.525h-9.422l-21.249 32h12.72l13.239-19.936 13.239 19.936h44.708c4.439 0 8.736-1.838 11.713-5.228 2.509-2.861 4.041-6.648 4.041-10.795 0-3.469-1.070-6.686-2.889-9.319-2.932-4.24-7.756-6.657-12.812-6.657zM187.391 21.284h-23.223v-10.617h23.223c2.844 0 5.157 2.382 5.157 5.31s-2.313 5.307-5.157 5.307z"></path>
<path d="M209.089 10.103c2.632 0 4.765-2.197 4.765-4.907s-2.133-4.907-4.765-4.907c-2.632 0-4.765 2.197-4.765 4.907s2.133 4.907 4.765 4.907z"></path>
</symbol>
<symbol id="icon-burger" viewBox="0 0 32 32">
<path d="M0 4.8h32v3.2h-32v-3.2zM0 14.4h32v3.2h-32v-3.2zM0 24h32v3.2h-32v-3.2z"></path>
</symbol>
<symbol id="icon-arrow" viewBox="0 0 112 32">
<path d="M14.395 31.215l-13.762-13.762c-0.845-0.845-0.845-2.214 0-3.058l13.762-13.762c0.845-0.845 2.214-0.845 3.058 0s0.845 2.214 0 3.058l-10.070 10.070h101.481c1.194 0 2.162 0.968 2.162 2.163s-0.969 2.162-2.162 2.162h-101.481l10.070 10.070c0.845 0.845 0.845 2.214 0 3.058s-2.214 0.845-3.058 0z"></path>
</symbol>


</defs>
</svg>
